<?xml version="1.0" encoding="UTF-8" standalone="no"?>
<!-- Created with Inkscape (http://www.inkscape.org/) -->

<svg
   xmlns:osb="http://www.openswatchbook.org/uri/2009/osb"
   xmlns:dc="http://purl.org/dc/elements/1.1/"
   xmlns:cc="http://creativecommons.org/ns#"
   xmlns:rdf="http://www.w3.org/1999/02/22-rdf-syntax-ns#"
   xmlns:svg="http://www.w3.org/2000/svg"
   xmlns="http://www.w3.org/2000/svg"
   xmlns:xlink="http://www.w3.org/1999/xlink"
   xmlns:sodipodi="http://sodipodi.sourceforge.net/DTD/sodipodi-0.dtd"
   xmlns:inkscape="http://www.inkscape.org/namespaces/inkscape"
   width="500"
   height="230"
   id="svg3225"
   version="1.1"
   inkscape:version="0.48.0 r9654"
   sodipodi:docname="logo_xpcc_small.svg"
   inkscape:export-filename="logo_xpcc.png"
   inkscape:export-xdpi="90"
   inkscape:export-ydpi="90"
   style="display:inline">
  <defs
     id="defs3227">
    <linearGradient
       id="linearGradient3851">
      <stop
         style="stop-color:#000000;stop-opacity:1;"
         offset="0"
         id="stop3853" />
      <stop
         style="stop-color:#000000;stop-opacity:0;"
         offset="1"
         id="stop3855" />
    </linearGradient>
    <linearGradient
       inkscape:collect="always"
       id="linearGradient5283">
      <stop
         style="stop-color:#000000;stop-opacity:1;"
         offset="0"
         id="stop5285" />
      <stop
         style="stop-color:#000000;stop-opacity:0;"
         offset="1"
         id="stop5287" />
    </linearGradient>
    <linearGradient
       id="linearGradient3843"
       osb:paint="solid">
      <stop
         style="stop-color:#000000;stop-opacity:1;"
         offset="0"
         id="stop3845" />
    </linearGradient>
    <linearGradient
       inkscape:collect="always"
       xlink:href="#linearGradient5283"
       id="linearGradient5291"
       x1="42.348045"
       y1="788.89722"
       x2="449.40555"
       y2="788.89722"
       gradientUnits="userSpaceOnUse" />
    <radialGradient
       inkscape:collect="always"
       xlink:href="#linearGradient3851"
       id="radialGradient3857"
       cx="237.5"
       cy="200.35715"
       fx="237.5"
       fy="200.35715"
       r="201.07143"
       gradientUnits="userSpaceOnUse" />
  </defs>
  <sodipodi:namedview
     id="base"
     pagecolor="#ffffff"
     bordercolor="#666666"
     borderopacity="1.0"
     inkscape:pageopacity="0.0"
     inkscape:pageshadow="2"
     inkscape:zoom="1.979899"
     inkscape:cx="348.75579"
     inkscape:cy="169.98544"
     inkscape:document-units="px"
     inkscape:current-layer="layer1"
     showgrid="false"
     inkscape:window-width="2048"
     inkscape:window-height="1075"
     inkscape:window-x="2048"
     inkscape:window-y="24"
     inkscape:window-maximized="1"
     showguides="true"
     inkscape:guide-bbox="true" />
  <metadata
     id="metadata3230">
    <rdf:RDF>
      <cc:Work
         rdf:about="">
        <dc:format>image/svg+xml</dc:format>
        <dc:type
           rdf:resource="http://purl.org/dc/dcmitype/StillImage" />
        <dc:title></dc:title>
      </cc:Work>
    </rdf:RDF>
  </metadata>
  <g
     inkscape:label="logo"
     inkscape:groupmode="layer"
     id="layer1"
     transform="translate(0,-822.36218)"
     style="display:inline">
    <g
       id="g3113"
       transform="translate(1.371719,172.73718)">
      <path
         d="m 299,655.65625 c -9.83666,1.4e-4 -19.1545,1.82566 -27.625,5.59375 -0.03,0.0133 -0.0638,0.0179 -0.0937,0.0312 -8.18475,3.57402 -15.34432,8.77944 -21.125,15.4375 -0.0244,0.0281 -0.0381,0.0656 -0.0625,0.0937 -5.71737,6.45538 -10.11779,14.10502 -13.21875,22.71875 a 9.3159893,9.3159893 0 0 0 -0.0625,0.15625 c -1.83943,5.41011 -3.00284,11.1243 -3.6875,17.0625 -1.71758,-2.41732 -3.53776,-4.75845 -5.59375,-6.875 -6.1647,-6.34576 -13.6584,-11.21096 -22.125,-14.5625 -8.59258,-3.40105 -18.09475,-5.03112 -28.28125,-5.03125 -10.38318,1.3e-4 -19.71593,0.76623 -28.125,2.4375 -0.0401,0.008 -0.085,0.0232 -0.125,0.0312 -7.58443,1.39544 -14.00278,2.72806 -19.25,4 a 9.3159893,9.3159893 0 0 0 -1.1875,0.40625 L 129.40625,695.75 A 9.3159893,9.3159893 0 0 0 121.75,681.125 l -22.78125,0 a 9.3159893,9.3159893 0 0 0 -7.6875,4.03125 L 70.25,715.8125 49.375,685.1875 a 9.3159893,9.3159893 0 0 0 -7.6875,-4.0625 l -24.15625,0 A 9.3159893,9.3159893 0 0 0 9.875,695.75 l 35.8125,51.4375 c -6.1494,8.32887 -12.321376,16.80049 -18.5625,25.84375 a 9.3159893,9.3159893 0 0 0 -0.03125,0 c -7.561307,11.0269 -14.095403,21.94606 -19.65625,32.75 a 9.3159893,9.3159893 0 0 0 8.28125,13.5625 l 22.0625,0 a 9.3159893,9.3159893 0 0 0 8.25,-5 C 47.608522,811.33255 49.601435,807.79754 52,803.75 c 2.384379,-4.02368 4.915465,-8.14426 7.59375,-12.3125 0.01592,-0.0243 0.04658,-0.0382 0.0625,-0.0625 2.825232,-4.30998 5.736254,-8.54328 8.71875,-12.71875 a 9.3159893,9.3159893 0 0 0 0.0625,-0.125 c 0.47316,-0.68609 0.906497,-1.23564 1.375,-1.90625 0.446105,0.61915 0.862713,1.15157 1.3125,1.78125 2.986828,4.18169 5.929817,8.46045 8.78125,12.8125 a 9.3159893,9.3159893 0 0 0 0.0625,0.125 c 2.81892,4.15433 5.437217,8.23209 7.78125,12.1875 2.376565,4.0106 4.326758,7.55994 5.875,10.65625 a 9.3159893,9.3159893 0 0 0 8.34375,5.15625 l 20.53125,0 0,44.9375 a 9.3159893,9.3159893 0 0 0 9.3125,9.3125 l 21.40625,0 a 9.3159893,9.3159893 0 0 0 9.3125,-9.3125 l 0,-33.59375 c 6.37534,2.10063 13.32859,3.09375 20.8125,3.09375 9.65506,0 18.64371,-1.74344 26.625,-5.4375 0.0299,-0.0136 0.0639,-0.0176 0.0937,-0.0312 7.90227,-3.60754 14.75534,-8.7878 20.21875,-15.34375 5.43775,-6.52544 9.44828,-14.26242 12.0625,-22.90625 0.0164,-0.0543 0.0462,-0.10185 0.0625,-0.15625 1.58683,-4.99478 2.62194,-10.24303 3.28125,-15.65625 1.18869,1.64257 2.43347,3.23377 3.78125,4.75 a 9.3159893,9.3159893 0 0 0 0.0937,0.0937 c 5.9605,6.50241 13.27232,11.63319 21.625,15.1875 a 9.3159893,9.3159893 0 0 0 0.0625,0.0312 c 8.70003,3.62504 18.48325,5.3125 29.125,5.3125 3.37355,0 6.80702,-0.27465 10.28125,-0.75 l 0,0.0312 c 0.13181,-0.012 0.24364,-0.0501 0.375,-0.0625 0.0321,-0.003 0.0617,0.003 0.0937,0 3.3375,-0.3183 6.51561,-0.78397 9.5625,-1.40625 0.14906,-0.0304 0.32038,-0.0313 0.46875,-0.0625 l 0,-0.0312 c 3.00328,-0.48978 5.80898,-1.05118 8.3125,-1.71875 A 9.3159893,9.3159893 0 0 0 330,795.46875 c 2.74781,-0.91597 5.07479,-1.87107 7.28125,-3.25 a 9.3159893,9.3159893 0 0 0 2.96875,-3 c 5.72929,5.89847 12.55406,10.62276 20.34375,13.9375 a 9.3159893,9.3159893 0 0 0 0.0625,0.0312 c 8.70003,3.62504 18.48325,5.3125 29.125,5.3125 3.37355,0 6.80702,-0.27465 10.28125,-0.75 l 0,0.0312 c 0.13181,-0.012 0.24364,-0.0501 0.375,-0.0625 0.0321,-0.003 0.0617,0.003 0.0937,0 3.3375,-0.3183 6.51561,-0.78397 9.5625,-1.40625 0.14906,-0.0304 0.32038,-0.0313 0.46875,-0.0625 l 0,-0.0312 c 2.94774,-0.47726 5.73703,-1.00074 8.3125,-1.6875 a 9.3159893,9.3159893 0 0 0 0.53125,-0.15625 c 2.74781,-0.91597 5.07479,-1.87107 7.28125,-3.25 a 9.3159893,9.3159893 0 0 0 4.25,-9.4375 L 427.96875,773.75 a 9.3159893,9.3159893 0 0 0 -13.15625,-6.90625 c -1.61968,0.76219 -4.73808,1.82535 -8.96875,2.8125 -3.79464,0.88541 -8.21189,1.37502 -13.28125,1.375 -6.11987,2e-5 -10.87472,-0.88779 -14.34375,-2.28125 -3.61209,-1.60108 -6.33341,-3.65766 -8.5625,-6.28125 -2.17863,-2.74715 -3.89918,-6.09584 -5.125,-10.34375 -0.01,-0.0342 -0.0215,-0.0595 -0.0312,-0.0937 -1.12376,-4.46085 -1.75003,-9.50479 -1.75,-15.15625 -3e-5,-13.04013 2.8866,-21.64171 7.28125,-26.90625 0.005,-0.006 -0.005,-0.025 0,-0.0312 4.56993,-5.27683 10.4823,-7.90617 20.4375,-7.90625 4.15893,9e-5 7.91735,0.40187 11.3125,1.15625 a 9.3159893,9.3159893 0 0 0 0.0937,0 c 3.7163,0.79645 6.7934,1.84518 9.21875,3 a 9.3159893,9.3159893 0 0 0 13,-6 L 428.9375,682 a 9.3159893,9.3159893 0 0 0 -5.5,-11.03125 c -5.54698,-2.25328 -11.36995,-3.90791 -17.375,-4.9375 -5.88061,-1.00796 -11.76329,-1.49987 -17.65625,-1.5 -9.85878,1.4e-4 -19.17479,1.86569 -27.625,5.625 -0.0299,0.0133 -0.0638,0.0179 -0.0937,0.0312 -8.17266,3.56871 -15.315,8.75045 -21.09375,15.40625 -0.0244,0.0281 -0.0381,0.0656 -0.0625,0.0937 -2.01215,2.27188 -3.81189,4.72166 -5.5,7.28125 A 9.3159893,9.3159893 0 0 0 334.6875,691.25 L 339.5,673.09375 a 9.3159893,9.3159893 0 0 0 -5.5,-11 c -5.5342,-2.24809 -11.33277,-3.90689 -17.34375,-4.9375 -5.88061,-1.00796 -11.76329,-1.49987 -17.65625,-1.5 z m 2.0625,37.46875 c 4.15893,9e-5 7.91735,0.40187 11.3125,1.15625 a 9.3159893,9.3159893 0 0 0 0.0937,0 c 3.7163,0.79645 6.7934,1.84518 9.21875,3 a 9.3159893,9.3159893 0 0 0 11.21875,-2.5625 c -2.60957,4.23578 -4.83033,8.78915 -6.59375,13.6875 a 9.3159893,9.3159893 0 0 0 -0.0625,0.15625 c -2.97409,8.74736 -4.40626,18.23534 -4.40625,28.3125 -10e-6,7.50902 0.73636,14.68175 2.28125,21.46875 -1.78357,0.7428 -4.09102,1.59832 -7.6875,2.4375 -3.74659,0.8742 -8.20893,1.34377 -13.3125,1.34375 -6.1469,2e-5 -10.90543,-0.86941 -14.34375,-2.25 -3.61209,-1.60108 -6.33341,-3.65766 -8.5625,-6.28125 -2.16406,-2.72951 -3.89647,-6.11739 -5.125,-10.375 -0.01,-0.034 -0.0215,-0.0596 -0.0312,-0.0937 -1.1148,-4.42952 -1.71878,-9.47566 -1.71875,-15.15625 -3e-5,-13.04013 2.87849,-21.60085 7.28125,-26.875 0.005,-0.006 -0.005,-0.025 0,-0.0312 4.57818,-5.28661 10.49842,-7.93742 20.4375,-7.9375 z M 122.5,705.65625 a 9.3159893,9.3159893 0 0 0 0,0.15625 l 0,80.5 c -2.89942,-4.62058 -5.87573,-9.25717 -9.1875,-13.9375 -0.0307,-0.0448 -0.0631,-0.0802 -0.0937,-0.125 C 106.85637,762.96349 100.66644,754.31536 94.5,745.84375 l 28,-40.1875 z M 176.90625,728 c 9.48213,8e-5 15.56621,2.6396 20.71875,8.25 4.94968,5.3898 7.90616,13.48563 7.90625,25.90625 -9e-5,5.50869 -0.56924,10.56823 -1.625,15.1875 -0.97933,4.12812 -2.44544,7.49455 -4.4375,10.40625 -0.0285,0.0417 -0.065,0.0835 -0.0937,0.125 -1.85618,2.53892 -4.17942,4.54498 -7.3125,6.1875 -0.0436,0.0228 -0.0811,0.0398 -0.125,0.0625 -2.70268,1.32545 -6.36397,2.18752 -11.34375,2.1875 -4.75382,2e-5 -8.90978,-0.80316 -12.625,-2.3125 -2.16104,-0.8779 -3.9644,-1.77838 -5.4375,-2.59375 l 0,-62.71875 c 0.1525,-0.0208 0.18754,-0.042 0.34375,-0.0625 0.0134,-0.002 0.049,0.002 0.0625,0 3.01332,-0.37339 7.77564,-0.6249 13.96875,-0.625 z"
         inkscape:href="#text3155"
         id="path3949"
         style="font-size:20.259655px;font-style:normal;font-variant:normal;font-weight:bold;font-stretch:normal;line-height:125%;letter-spacing:0px;word-spacing:0px;fill:#000000;fill-opacity:1;stroke:none;font-family:Ubuntu;-inkscape-font-specification:Ubuntu Bold"
         xlink:href="#text3155"
         inkscape:original="M 299 664.96875 C 290.25994 664.96887 282.30036 666.56137 275.09375 669.78125 C 268.04038 672.84803 262.03163 677.23303 257.125 682.90625 C 252.21831 688.42635 248.38498 695.02093 245.625 702.6875 C 243.01832 710.35424 241.71874 718.76882 241.71875 727.96875 C 241.71874 737.1688 242.9529 745.61463 245.40625 753.28125 C 247.85957 760.79461 251.53081 767.29252 256.4375 772.8125 C 261.49747 778.33251 267.63705 782.65209 274.84375 785.71875 C 282.2037 788.78542 290.71494 790.3125 300.375 790.3125 C 303.44159 790.3125 306.59242 790.085 309.8125 789.625 C 313.18575 789.31833 316.33658 788.86333 319.25 788.25 C 322.16324 787.79 324.7624 787.23833 327.0625 786.625 C 329.3624 785.85834 331.11698 785.07917 332.34375 784.3125 L 329.34375 766.375 C 326.73699 767.60169 323.16241 768.77044 318.5625 769.84375 C 313.96242 770.9171 308.79825 771.43752 303.125 771.4375 C 296.0716 771.43752 290.09411 770.4621 285.1875 768.46875 C 280.28078 766.3221 276.21995 763.33336 273 759.5 C 269.93329 755.6667 267.62705 751.0542 266.09375 745.6875 C 264.71371 740.32088 264.03122 734.4088 264.03125 727.96875 C 264.03122 713.55549 267.18205 702.60717 273.46875 695.09375 C 279.9087 687.58052 289.10244 683.8126 301.0625 683.8125 C 305.81576 683.8126 310.26617 684.2676 314.40625 685.1875 C 318.69949 686.1076 322.46741 687.34177 325.6875 688.875 L 330.5 670.71875 C 325.59324 668.72554 320.46033 667.26387 315.09375 666.34375 C 309.727 665.42387 304.36659 664.96887 299 664.96875 z M 388.40625 673.84375 C 379.66619 673.84387 371.70661 675.46762 364.5 678.6875 C 357.44663 681.75428 351.46913 686.10803 346.5625 691.78125 C 341.65581 697.30135 337.82248 703.89593 335.0625 711.5625 C 332.45582 719.22924 331.15624 727.67507 331.15625 736.875 C 331.15624 746.07505 332.35915 754.48963 334.8125 762.15625 C 337.26582 769.66961 340.96831 776.19877 345.875 781.71875 C 350.93497 787.23876 357.0433 791.52709 364.25 794.59375 C 371.60995 797.66042 380.12119 799.1875 389.78125 799.1875 C 392.84784 799.1875 395.99867 798.96 399.21875 798.5 C 402.592 798.19333 405.74283 797.73833 408.65625 797.125 C 411.56949 796.665 414.16865 796.14458 416.46875 795.53125 C 418.76865 794.76459 420.52323 793.98542 421.75 793.21875 L 418.78125 775.28125 C 416.17449 776.50794 412.56866 777.64544 407.96875 778.71875 C 403.36867 779.7921 398.23575 780.34377 392.5625 780.34375 C 385.5091 780.34377 379.53161 779.3371 374.625 777.34375 C 369.71828 775.1971 365.65745 772.20836 362.4375 768.375 C 359.37079 764.5417 357.06455 759.96045 355.53125 754.59375 C 354.15121 749.22713 353.43747 743.31505 353.4375 736.875 C 353.43747 722.46174 356.5883 711.48217 362.875 703.96875 C 369.31495 696.45552 378.50869 692.71885 390.46875 692.71875 C 395.22201 692.71885 399.67242 693.17385 403.8125 694.09375 C 408.10574 695.01385 411.87366 696.24802 415.09375 697.78125 L 419.9375 679.59375 C 415.03074 677.60054 409.86658 676.13887 404.5 675.21875 C 399.13325 674.29887 393.77284 673.84387 388.40625 673.84375 z M 17.53125 690.4375 L 57.09375 747.25 C 49.733712 757.06339 42.294553 767.42588 34.78125 778.3125 C 27.421234 789.04585 21.085407 799.60459 15.71875 810.03125 L 37.78125 810.03125 C 39.467889 806.81125 41.546637 803.14001 44 799 C 46.453298 794.86002 49.052463 790.6371 51.8125 786.34375 C 54.72579 781.89711 57.714537 777.54337 60.78125 773.25 C 63.847864 768.80337 66.836611 764.64588 69.75 760.8125 C 72.663272 764.64588 75.652019 768.70671 78.71875 773 C 81.785346 777.29337 84.774093 781.67836 87.6875 786.125 C 90.600754 790.41835 93.296585 794.64127 95.75 798.78125 C 98.203247 802.92126 100.28199 806.65792 101.96875 810.03125 L 125.40625 810.03125 C 120.03947 799.45126 113.4449 788.66502 105.625 777.625 C 97.958247 766.43171 90.453671 755.84172 83.09375 745.875 L 121.75 690.4375 L 98.96875 690.4375 L 70.21875 732.3125 L 41.6875 690.4375 L 17.53125 690.4375 z M 177.125 699.59375 C 167.15828 699.59387 158.35412 700.34179 150.6875 701.875 C 143.17414 703.25512 136.87248 704.58595 131.8125 705.8125 L 131.8125 864.28125 L 153.21875 864.28125 L 153.21875 816.4375 C 155.82537 818.12417 159.72412 819.87875 164.9375 821.71875 C 170.30411 823.55875 176.44369 824.46875 183.34375 824.46875 C 191.93034 824.46875 199.53158 822.94167 206.125 819.875 C 212.87157 816.80834 218.52489 812.52001 223.125 807 C 227.72489 801.48002 231.16863 794.88544 233.46875 787.21875 C 235.92196 779.55213 237.15613 771.20297 237.15625 762.15625 C 237.15613 752.49632 235.69446 743.82299 232.78125 736.15625 C 230.02113 728.33634 226.05697 721.74177 220.84375 716.375 C 215.63031 711.00844 209.32865 706.8822 201.96875 703.96875 C 194.60867 701.05554 186.32493 699.59387 177.125 699.59375 z M 176.90625 718.6875 C 188.40617 718.6876 197.59992 722.42427 204.5 729.9375 C 211.3999 737.45092 214.84365 748.20299 214.84375 762.15625 C 214.84365 768.28964 214.22657 774.03963 213 779.40625 C 211.77323 784.61962 209.79115 789.20087 207.03125 793.1875 C 204.27116 797.02086 200.66533 800.10627 196.21875 802.40625 C 191.92534 804.55293 186.72701 805.62502 180.59375 805.625 C 174.76702 805.62502 169.37536 804.61835 164.46875 802.625 C 159.56204 800.63169 155.82537 798.55294 153.21875 796.40625 L 153.21875 720.96875 C 155.36537 720.35552 158.19204 719.8351 161.71875 719.375 C 165.3987 718.9151 170.46619 718.6876 176.90625 718.6875 z "
         inkscape:radius="9.3150578"
         sodipodi:type="inkscape:offset" />
      <path
         d="m 299,664.96875 c -8.74006,1.2e-4 -16.69964,1.59262 -23.90625,4.8125 -7.05337,3.06678 -13.06212,7.45178 -17.96875,13.125 -4.90669,5.5201 -8.74002,12.11468 -11.5,19.78125 -2.60668,7.66674 -3.90626,16.08132 -3.90625,25.28125 -1e-5,9.20005 1.23415,17.64588 3.6875,25.3125 2.45332,7.51336 6.12456,14.01127 11.03125,19.53125 5.05997,5.52001 11.19955,9.83959 18.40625,12.90625 7.35995,3.06667 15.87119,4.59375 25.53125,4.59375 3.06659,0 6.21742,-0.2275 9.4375,-0.6875 3.37325,-0.30667 6.52408,-0.76167 9.4375,-1.375 2.91324,-0.46 5.5124,-1.01167 7.8125,-1.625 2.2999,-0.76666 4.05448,-1.54583 5.28125,-2.3125 l -3,-17.9375 c -2.60676,1.22669 -6.18134,2.39544 -10.78125,3.46875 -4.60008,1.07335 -9.76425,1.59377 -15.4375,1.59375 -7.0534,2e-5 -13.03089,-0.9754 -17.9375,-2.96875 C 280.28078,766.3221 276.21995,763.33336 273,759.5 c -3.06671,-3.8333 -5.37295,-8.4458 -6.90625,-13.8125 -1.38004,-5.36662 -2.06253,-11.2787 -2.0625,-17.71875 -3e-5,-14.41326 3.1508,-25.36158 9.4375,-32.875 6.43995,-7.51323 15.63369,-11.28115 27.59375,-11.28125 4.75326,10e-5 9.20367,0.4551 13.34375,1.375 4.29324,0.9201 8.06116,2.15427 11.28125,3.6875 L 330.5,670.71875 c -4.90676,-1.99321 -10.03967,-3.45488 -15.40625,-4.375 -5.36675,-0.91988 -10.72716,-1.37488 -16.09375,-1.375 z m 89.40625,8.875 c -8.74006,1.2e-4 -16.69964,1.62387 -23.90625,4.84375 -7.05337,3.06678 -13.03087,7.42053 -17.9375,13.09375 -4.90669,5.5201 -8.74002,12.11468 -11.5,19.78125 -2.60668,7.66674 -3.90626,16.11257 -3.90625,25.3125 -10e-6,9.20005 1.2029,17.61463 3.65625,25.28125 2.45332,7.51336 6.15581,14.04252 11.0625,19.5625 5.05997,5.52001 11.1683,9.80834 18.375,12.875 7.35995,3.06667 15.87119,4.59375 25.53125,4.59375 3.06659,0 6.21742,-0.2275 9.4375,-0.6875 3.37325,-0.30667 6.52408,-0.76167 9.4375,-1.375 2.91324,-0.46 5.5124,-0.98042 7.8125,-1.59375 2.2999,-0.76666 4.05448,-1.54583 5.28125,-2.3125 l -2.96875,-17.9375 c -2.60676,1.22669 -6.21259,2.36419 -10.8125,3.4375 -4.60008,1.07335 -9.733,1.62502 -15.40625,1.625 -7.0534,2e-5 -13.03089,-1.00665 -17.9375,-3 -4.90672,-2.14665 -8.96755,-5.13539 -12.1875,-8.96875 -3.06671,-3.8333 -5.37295,-8.41455 -6.90625,-13.78125 -1.38004,-5.36662 -2.09378,-11.2787 -2.09375,-17.71875 -3e-5,-14.41326 3.1508,-25.39283 9.4375,-32.90625 6.43995,-7.51323 15.63369,-11.2499 27.59375,-11.25 4.75326,10e-5 9.20367,0.4551 13.34375,1.375 4.29324,0.9201 8.06116,2.15427 11.28125,3.6875 l 4.84375,-18.1875 c -4.90676,-1.99321 -10.07092,-3.45488 -15.4375,-4.375 -5.36675,-0.91988 -10.72716,-1.37488 -16.09375,-1.375 z m -370.875,16.59375 39.5625,56.8125 c -7.360038,9.81339 -14.799197,20.17588 -22.3125,31.0625 -7.360016,10.73335 -13.695843,21.29209 -19.0625,31.71875 l 22.0625,0 C 39.467889,806.81125 41.546637,803.14001 44,799 c 2.453298,-4.13998 5.052463,-8.3629 7.8125,-12.65625 2.91329,-4.44664 5.902037,-8.80038 8.96875,-13.09375 3.066614,-4.44663 6.055361,-8.60412 8.96875,-12.4375 2.913272,3.83338 5.902019,7.89421 8.96875,12.1875 3.066596,4.29337 6.055343,8.67836 8.96875,13.125 2.913254,4.29335 5.609085,8.51627 8.0625,12.65625 2.453247,4.14001 4.53199,7.87667 6.21875,11.25 l 23.4375,0 C 120.03947,799.45126 113.4449,788.66502 105.625,777.625 97.958247,766.43171 90.453671,755.84172 83.09375,745.875 l 38.65625,-55.4375 -22.78125,0 -28.75,41.875 -28.53125,-41.875 -24.15625,0 z m 159.59375,9.15625 c -9.96672,1.2e-4 -18.77088,0.74804 -26.4375,2.28125 -7.51336,1.38012 -13.81502,2.71095 -18.875,3.9375 l 0,158.46875 21.40625,0 0,-47.84375 c 2.60662,1.68667 6.50537,3.44125 11.71875,5.28125 5.36661,1.84 11.50619,2.75 18.40625,2.75 8.58659,0 16.18783,-1.52708 22.78125,-4.59375 6.74657,-3.06666 12.39989,-7.35499 17,-12.875 4.59989,-5.51998 8.04363,-12.11456 10.34375,-19.78125 2.45321,-7.66662 3.68738,-16.01578 3.6875,-25.0625 -1.2e-4,-9.65993 -1.46179,-18.33326 -4.375,-26 -2.76012,-7.81991 -6.72428,-14.41448 -11.9375,-19.78125 -5.21344,-5.36656 -11.5151,-9.4928 -18.875,-12.40625 -7.36008,-2.91321 -15.64382,-4.37488 -24.84375,-4.375 z m -0.21875,19.09375 c 11.49992,10e-5 20.69367,3.73677 27.59375,11.25 6.8999,7.51342 10.34365,18.26549 10.34375,32.21875 -1e-4,6.13339 -0.61718,11.88338 -1.84375,17.25 -1.22677,5.21337 -3.20885,9.79462 -5.96875,13.78125 -2.76009,3.83336 -6.36592,6.91877 -10.8125,9.21875 -4.29341,2.14668 -9.49174,3.21877 -15.625,3.21875 -5.82673,2e-5 -11.21839,-1.00665 -16.125,-3 -4.90671,-1.99331 -8.64338,-4.07206 -11.25,-6.21875 l 0,-75.4375 c 2.14662,-0.61323 4.97329,-1.13365 8.5,-1.59375 3.67995,-0.4599 8.74744,-0.6874 15.1875,-0.6875 z"
         inkscape:href="#text3155"
         id="path4021"
         style="font-size:20.259655px;font-style:normal;font-variant:normal;font-weight:bold;font-stretch:normal;line-height:125%;letter-spacing:0px;word-spacing:0px;fill:#bcbcbc;fill-opacity:1;stroke:none;font-family:Ubuntu;-inkscape-font-specification:Ubuntu Bold"
         xlink:href="#text3155"
         inkscape:original="M 299 664.96875 C 290.25994 664.96887 282.30036 666.56137 275.09375 669.78125 C 268.04038 672.84803 262.03163 677.23303 257.125 682.90625 C 252.21831 688.42635 248.38498 695.02093 245.625 702.6875 C 243.01832 710.35424 241.71874 718.76882 241.71875 727.96875 C 241.71874 737.1688 242.9529 745.61463 245.40625 753.28125 C 247.85957 760.79461 251.53081 767.29252 256.4375 772.8125 C 261.49747 778.33251 267.63705 782.65209 274.84375 785.71875 C 282.2037 788.78542 290.71494 790.3125 300.375 790.3125 C 303.44159 790.3125 306.59242 790.085 309.8125 789.625 C 313.18575 789.31833 316.33658 788.86333 319.25 788.25 C 322.16324 787.79 324.7624 787.23833 327.0625 786.625 C 329.3624 785.85834 331.11698 785.07917 332.34375 784.3125 L 329.34375 766.375 C 326.73699 767.60169 323.16241 768.77044 318.5625 769.84375 C 313.96242 770.9171 308.79825 771.43752 303.125 771.4375 C 296.0716 771.43752 290.09411 770.4621 285.1875 768.46875 C 280.28078 766.3221 276.21995 763.33336 273 759.5 C 269.93329 755.6667 267.62705 751.0542 266.09375 745.6875 C 264.71371 740.32088 264.03122 734.4088 264.03125 727.96875 C 264.03122 713.55549 267.18205 702.60717 273.46875 695.09375 C 279.9087 687.58052 289.10244 683.8126 301.0625 683.8125 C 305.81576 683.8126 310.26617 684.2676 314.40625 685.1875 C 318.69949 686.1076 322.46741 687.34177 325.6875 688.875 L 330.5 670.71875 C 325.59324 668.72554 320.46033 667.26387 315.09375 666.34375 C 309.727 665.42387 304.36659 664.96887 299 664.96875 z M 388.40625 673.84375 C 379.66619 673.84387 371.70661 675.46762 364.5 678.6875 C 357.44663 681.75428 351.46913 686.10803 346.5625 691.78125 C 341.65581 697.30135 337.82248 703.89593 335.0625 711.5625 C 332.45582 719.22924 331.15624 727.67507 331.15625 736.875 C 331.15624 746.07505 332.35915 754.48963 334.8125 762.15625 C 337.26582 769.66961 340.96831 776.19877 345.875 781.71875 C 350.93497 787.23876 357.0433 791.52709 364.25 794.59375 C 371.60995 797.66042 380.12119 799.1875 389.78125 799.1875 C 392.84784 799.1875 395.99867 798.96 399.21875 798.5 C 402.592 798.19333 405.74283 797.73833 408.65625 797.125 C 411.56949 796.665 414.16865 796.14458 416.46875 795.53125 C 418.76865 794.76459 420.52323 793.98542 421.75 793.21875 L 418.78125 775.28125 C 416.17449 776.50794 412.56866 777.64544 407.96875 778.71875 C 403.36867 779.7921 398.23575 780.34377 392.5625 780.34375 C 385.5091 780.34377 379.53161 779.3371 374.625 777.34375 C 369.71828 775.1971 365.65745 772.20836 362.4375 768.375 C 359.37079 764.5417 357.06455 759.96045 355.53125 754.59375 C 354.15121 749.22713 353.43747 743.31505 353.4375 736.875 C 353.43747 722.46174 356.5883 711.48217 362.875 703.96875 C 369.31495 696.45552 378.50869 692.71885 390.46875 692.71875 C 395.22201 692.71885 399.67242 693.17385 403.8125 694.09375 C 408.10574 695.01385 411.87366 696.24802 415.09375 697.78125 L 419.9375 679.59375 C 415.03074 677.60054 409.86658 676.13887 404.5 675.21875 C 399.13325 674.29887 393.77284 673.84387 388.40625 673.84375 z M 17.53125 690.4375 L 57.09375 747.25 C 49.733712 757.06339 42.294553 767.42588 34.78125 778.3125 C 27.421234 789.04585 21.085407 799.60459 15.71875 810.03125 L 37.78125 810.03125 C 39.467889 806.81125 41.546637 803.14001 44 799 C 46.453298 794.86002 49.052463 790.6371 51.8125 786.34375 C 54.72579 781.89711 57.714537 777.54337 60.78125 773.25 C 63.847864 768.80337 66.836611 764.64588 69.75 760.8125 C 72.663272 764.64588 75.652019 768.70671 78.71875 773 C 81.785346 777.29337 84.774093 781.67836 87.6875 786.125 C 90.600754 790.41835 93.296585 794.64127 95.75 798.78125 C 98.203247 802.92126 100.28199 806.65792 101.96875 810.03125 L 125.40625 810.03125 C 120.03947 799.45126 113.4449 788.66502 105.625 777.625 C 97.958247 766.43171 90.453671 755.84172 83.09375 745.875 L 121.75 690.4375 L 98.96875 690.4375 L 70.21875 732.3125 L 41.6875 690.4375 L 17.53125 690.4375 z M 177.125 699.59375 C 167.15828 699.59387 158.35412 700.34179 150.6875 701.875 C 143.17414 703.25512 136.87248 704.58595 131.8125 705.8125 L 131.8125 864.28125 L 153.21875 864.28125 L 153.21875 816.4375 C 155.82537 818.12417 159.72412 819.87875 164.9375 821.71875 C 170.30411 823.55875 176.44369 824.46875 183.34375 824.46875 C 191.93034 824.46875 199.53158 822.94167 206.125 819.875 C 212.87157 816.80834 218.52489 812.52001 223.125 807 C 227.72489 801.48002 231.16863 794.88544 233.46875 787.21875 C 235.92196 779.55213 237.15613 771.20297 237.15625 762.15625 C 237.15613 752.49632 235.69446 743.82299 232.78125 736.15625 C 230.02113 728.33634 226.05697 721.74177 220.84375 716.375 C 215.63031 711.00844 209.32865 706.8822 201.96875 703.96875 C 194.60867 701.05554 186.32493 699.59387 177.125 699.59375 z M 176.90625 718.6875 C 188.40617 718.6876 197.59992 722.42427 204.5 729.9375 C 211.3999 737.45092 214.84365 748.20299 214.84375 762.15625 C 214.84365 768.28964 214.22657 774.03963 213 779.40625 C 211.77323 784.61962 209.79115 789.20087 207.03125 793.1875 C 204.27116 797.02086 200.66533 800.10627 196.21875 802.40625 C 191.92534 804.55293 186.72701 805.62502 180.59375 805.625 C 174.76702 805.62502 169.37536 804.61835 164.46875 802.625 C 159.56204 800.63169 155.82537 798.55294 153.21875 796.40625 L 153.21875 720.96875 C 155.36537 720.35552 158.19204 719.8351 161.71875 719.375 C 165.3987 718.9151 170.46619 718.6876 176.90625 718.6875 z "
         inkscape:radius="0"
         sodipodi:type="inkscape:offset" />
      <text
         sodipodi:linespacing="125%"
         id="text3155"
         y="810.03973"
         x="11.565189"
         style="font-size:22.18293381px;font-style:normal;font-variant:normal;font-weight:bold;font-stretch:normal;line-height:125%;letter-spacing:0px;word-spacing:0px;fill:#8c2300;fill-opacity:1;stroke:#b45b00;stroke-width:2;stroke-miterlimit:4;stroke-opacity:1;stroke-dasharray:none;font-family:Ubuntu;-inkscape-font-specification:Ubuntu Bold"
         xml:space="preserve"><tspan
           dx="0 -17.199272 -19.982996 -18.398958"
           dy="0 11.678452 -34.173401 8.8947268"
           style="font-size:230px;font-weight:normal;fill:#8c2300;fill-opacity:1;stroke:#b45b00;stroke-width:2;stroke-miterlimit:4;stroke-opacity:1;stroke-dasharray:none;-inkscape-font-specification:Ubuntu"
           y="810.03973"
           x="11.565189"
           id="tspan3157"
           sodipodi:role="line">xpcc</tspan></text>
    </g>
    <text
       xml:space="preserve"
       style="font-size:15.32904053px;font-style:normal;font-variant:normal;font-weight:normal;font-stretch:normal;line-height:125%;letter-spacing:0px;word-spacing:0px;fill:#000000;fill-opacity:1;fill-rule:nonzero;stroke:none;display:inline;font-family:Ubuntu;-inkscape-font-specification:Ubuntu"
       x="196.59811"
       y="1015.8395"
       id="text3935"
       sodipodi:linespacing="125%"><tspan
         sodipodi:role="line"
         x="196.59811"
         y="1015.8395"
         style="font-size:36px;font-weight:bold;letter-spacing:0px;fill:#000000;fill-rule:nonzero;-inkscape-font-specification:Ubuntu Bold"
         id="tspan2997"><tspan
   style="fill:#000000;fill-opacity:1"
   id="tspan5295">... building ro</tspan>bots</tspan></text>
    <flowRoot
       xml:space="preserve"
       id="flowRoot3254"
       style="font-size:14px;font-style:normal;font-variant:normal;font-weight:normal;font-stretch:normal;line-height:125%;letter-spacing:0px;word-spacing:0px;fill:#000000;fill-opacity:1;stroke:none;font-family:Ubuntu;-inkscape-font-specification:Ubuntu"><flowRegion
         id="flowRegion3256"><rect
           id="rect3258"
           width="1343.5029"
           height="672.7616"
           x="-101.01525"
           y="131.10306" /></flowRegion><flowPara
         id="flowPara3260" /></flowRoot>    <flowRoot
       xml:space="preserve"
       id="flowRoot3262"
       style="font-size:14px;font-style:normal;font-variant:normal;font-weight:normal;font-stretch:normal;line-height:125%;letter-spacing:0px;word-spacing:0px;fill:#000000;fill-opacity:1;stroke:none;font-family:Ubuntu;-inkscape-font-specification:Ubuntu"><flowRegion
         id="flowRegion3264"><rect
           id="rect3266"
           width="1044.2858"
           height="602.85712"
           x="-408.57144"
           y="-198.57143" /></flowRegion><flowPara
         id="flowPara3268" /></flowRoot>  </g>
</svg>
